<mxfile host="app.diagrams.net" modified="2023-03-31T15:51:20.923Z" agent="Mozilla/5.0 (Windows NT 10.0; Win64; x64) AppleWebKit/537.36 (KHTML, like Gecko) Chrome/111.0.0.0 Safari/537.36" etag="Dh0_UJqsST4Pv55J0P4K" version="21.1.2" type="github">
  <diagram name="PÃ¡gina-1" id="yC3Ya9tQKtJzCt-TxTDm">
    <mxGraphModel dx="1434" dy="764" grid="1" gridSize="10" guides="1" tooltips="1" connect="1" arrows="1" fold="1" page="1" pageScale="1" pageWidth="827" pageHeight="1169" math="0" shadow="0">
      <root>
        <mxCell id="0" />
        <mxCell id="1" parent="0" />
        <mxCell id="g5x2a9oLAI8HUKNmbL3N-11" style="edgeStyle=orthogonalEdgeStyle;rounded=0;orthogonalLoop=1;jettySize=auto;html=1;" edge="1" parent="1" source="g5x2a9oLAI8HUKNmbL3N-1">
          <mxGeometry relative="1" as="geometry">
            <mxPoint x="414" y="170" as="targetPoint" />
          </mxGeometry>
        </mxCell>
        <mxCell id="g5x2a9oLAI8HUKNmbL3N-1" value="&lt;font style=&quot;font-size: 18px;&quot;&gt;Inicio&lt;/font&gt;" style="ellipse;whiteSpace=wrap;html=1;" vertex="1" parent="1">
          <mxGeometry x="354" y="30" width="120" height="80" as="geometry" />
        </mxCell>
        <mxCell id="g5x2a9oLAI8HUKNmbL3N-13" style="edgeStyle=orthogonalEdgeStyle;rounded=0;orthogonalLoop=1;jettySize=auto;html=1;" edge="1" parent="1" source="g5x2a9oLAI8HUKNmbL3N-12">
          <mxGeometry relative="1" as="geometry">
            <mxPoint x="414" y="290" as="targetPoint" />
          </mxGeometry>
        </mxCell>
        <mxCell id="g5x2a9oLAI8HUKNmbL3N-12" value="Ingresa dos cantidades" style="shape=parallelogram;perimeter=parallelogramPerimeter;whiteSpace=wrap;html=1;fixedSize=1;" vertex="1" parent="1">
          <mxGeometry x="334" y="170" width="159" height="80" as="geometry" />
        </mxCell>
        <mxCell id="g5x2a9oLAI8HUKNmbL3N-19" value="" style="edgeStyle=orthogonalEdgeStyle;rounded=0;orthogonalLoop=1;jettySize=auto;html=1;" edge="1" parent="1" source="g5x2a9oLAI8HUKNmbL3N-14" target="g5x2a9oLAI8HUKNmbL3N-18">
          <mxGeometry relative="1" as="geometry" />
        </mxCell>
        <mxCell id="g5x2a9oLAI8HUKNmbL3N-14" value="Dividir las cantidades" style="rounded=0;whiteSpace=wrap;html=1;" vertex="1" parent="1">
          <mxGeometry x="337" y="280" width="156" height="90" as="geometry" />
        </mxCell>
        <mxCell id="g5x2a9oLAI8HUKNmbL3N-24" value="" style="edgeStyle=orthogonalEdgeStyle;rounded=0;orthogonalLoop=1;jettySize=auto;html=1;" edge="1" parent="1" source="g5x2a9oLAI8HUKNmbL3N-18" target="g5x2a9oLAI8HUKNmbL3N-23">
          <mxGeometry relative="1" as="geometry" />
        </mxCell>
        <mxCell id="g5x2a9oLAI8HUKNmbL3N-31" value="" style="edgeStyle=orthogonalEdgeStyle;rounded=0;orthogonalLoop=1;jettySize=auto;html=1;" edge="1" parent="1" source="g5x2a9oLAI8HUKNmbL3N-18" target="g5x2a9oLAI8HUKNmbL3N-30">
          <mxGeometry relative="1" as="geometry" />
        </mxCell>
        <mxCell id="g5x2a9oLAI8HUKNmbL3N-18" value="Calcular Resultado" style="rhombus;whiteSpace=wrap;html=1;rounded=0;" vertex="1" parent="1">
          <mxGeometry x="361" y="400" width="106" height="125" as="geometry" />
        </mxCell>
        <mxCell id="g5x2a9oLAI8HUKNmbL3N-26" value="" style="edgeStyle=orthogonalEdgeStyle;rounded=0;orthogonalLoop=1;jettySize=auto;html=1;" edge="1" parent="1" source="g5x2a9oLAI8HUKNmbL3N-23" target="g5x2a9oLAI8HUKNmbL3N-25">
          <mxGeometry relative="1" as="geometry" />
        </mxCell>
        <mxCell id="g5x2a9oLAI8HUKNmbL3N-23" value="Numero mayor a 18" style="whiteSpace=wrap;html=1;rounded=0;" vertex="1" parent="1">
          <mxGeometry x="540" y="432.5" width="120" height="60" as="geometry" />
        </mxCell>
        <mxCell id="g5x2a9oLAI8HUKNmbL3N-40" style="edgeStyle=orthogonalEdgeStyle;rounded=0;orthogonalLoop=1;jettySize=auto;html=1;entryX=1;entryY=0.5;entryDx=0;entryDy=0;" edge="1" parent="1" source="g5x2a9oLAI8HUKNmbL3N-25" target="g5x2a9oLAI8HUKNmbL3N-28">
          <mxGeometry relative="1" as="geometry" />
        </mxCell>
        <mxCell id="g5x2a9oLAI8HUKNmbL3N-25" value="Verdadero&amp;nbsp;" style="whiteSpace=wrap;html=1;rounded=0;" vertex="1" parent="1">
          <mxGeometry x="540" y="572.5" width="120" height="60" as="geometry" />
        </mxCell>
        <mxCell id="g5x2a9oLAI8HUKNmbL3N-28" value="Fin" style="ellipse;whiteSpace=wrap;html=1;rounded=0;" vertex="1" parent="1">
          <mxGeometry x="377" y="640" width="97" height="90" as="geometry" />
        </mxCell>
        <mxCell id="g5x2a9oLAI8HUKNmbL3N-33" value="" style="edgeStyle=orthogonalEdgeStyle;rounded=0;orthogonalLoop=1;jettySize=auto;html=1;" edge="1" parent="1" source="g5x2a9oLAI8HUKNmbL3N-30" target="g5x2a9oLAI8HUKNmbL3N-32">
          <mxGeometry relative="1" as="geometry" />
        </mxCell>
        <mxCell id="g5x2a9oLAI8HUKNmbL3N-30" value="Numero menor a 18" style="whiteSpace=wrap;html=1;rounded=0;" vertex="1" parent="1">
          <mxGeometry x="168" y="432.5" width="120" height="60" as="geometry" />
        </mxCell>
        <mxCell id="g5x2a9oLAI8HUKNmbL3N-39" style="edgeStyle=orthogonalEdgeStyle;rounded=0;orthogonalLoop=1;jettySize=auto;html=1;entryX=0;entryY=0.5;entryDx=0;entryDy=0;" edge="1" parent="1" source="g5x2a9oLAI8HUKNmbL3N-32" target="g5x2a9oLAI8HUKNmbL3N-28">
          <mxGeometry relative="1" as="geometry" />
        </mxCell>
        <mxCell id="g5x2a9oLAI8HUKNmbL3N-32" value="Falso" style="whiteSpace=wrap;html=1;rounded=0;" vertex="1" parent="1">
          <mxGeometry x="168" y="572.5" width="120" height="60" as="geometry" />
        </mxCell>
      </root>
    </mxGraphModel>
  </diagram>
</mxfile>
